<mxfile host="app.diagrams.net" agent="Mozilla/5.0 (Windows NT 10.0; Win64; x64) AppleWebKit/537.36 (KHTML, like Gecko) Chrome/134.0.0.0 Safari/537.36 Edg/134.0.0.0" version="26.2.8">
  <diagram name="第 1 页" id="Y7R-OeQm8WGYuU0R5tl8">
    <mxGraphModel dx="2250" dy="1253" grid="1" gridSize="10" guides="1" tooltips="1" connect="1" arrows="1" fold="1" page="1" pageScale="1" pageWidth="1500" pageHeight="1000" math="0" shadow="0">
      <root>
        <mxCell id="0" />
        <mxCell id="1" parent="0" />
        <mxCell id="AegOCRpF5knvJNBnyZgM-1" value="" style="rounded=0;whiteSpace=wrap;html=1;fillColor=none;strokeWidth=2;fontFamily=Times New Roman;shadow=1;dashed=1;" vertex="1" parent="1">
          <mxGeometry x="368.5" y="93.5" width="179" height="178" as="geometry" />
        </mxCell>
        <mxCell id="AegOCRpF5knvJNBnyZgM-2" value="" style="edgeStyle=orthogonalEdgeStyle;rounded=0;orthogonalLoop=1;jettySize=auto;html=1;strokeWidth=2;fontFamily=Times New Roman;endSize=3;shadow=1;" edge="1" parent="1" target="AegOCRpF5knvJNBnyZgM-8">
          <mxGeometry relative="1" as="geometry">
            <mxPoint x="434.5" y="189.5" as="sourcePoint" />
          </mxGeometry>
        </mxCell>
        <mxCell id="AegOCRpF5knvJNBnyZgM-3" value="&lt;font&gt;&lt;b&gt;Netlist Input&lt;/b&gt;&lt;/font&gt;" style="shape=parallelogram;perimeter=parallelogramPerimeter;whiteSpace=wrap;html=1;fixedSize=1;fillColor=#d5e8d4;strokeColor=#82b366;strokeWidth=2;movable=1;resizable=1;rotatable=1;deletable=1;editable=1;locked=0;connectable=1;fontFamily=Times New Roman;shadow=1;" vertex="1" parent="1">
          <mxGeometry x="50" y="63.5" width="107" height="30" as="geometry" />
        </mxCell>
        <mxCell id="AegOCRpF5knvJNBnyZgM-4" value="&lt;p style=&quot;line-height: 90%;&quot;&gt;&lt;font&gt;Delay Information &lt;br&gt;of all paths&lt;/font&gt;&lt;/p&gt;" style="shape=parallelogram;perimeter=parallelogramPerimeter;whiteSpace=wrap;html=1;fixedSize=1;fillColor=#dae8fc;strokeColor=#6c8ebf;strokeWidth=2;movable=1;resizable=1;rotatable=1;deletable=1;editable=1;locked=0;connectable=1;fontFamily=Times New Roman;shadow=1;" vertex="1" parent="1">
          <mxGeometry x="379.5" y="52.25" width="129" height="30" as="geometry" />
        </mxCell>
        <mxCell id="AegOCRpF5knvJNBnyZgM-5" style="edgeStyle=orthogonalEdgeStyle;rounded=0;orthogonalLoop=1;jettySize=auto;html=1;entryX=0.5;entryY=0;entryDx=0;entryDy=0;strokeWidth=2;fontFamily=Times New Roman;endSize=3;shadow=1;" edge="1" parent="1" source="AegOCRpF5knvJNBnyZgM-6" target="AegOCRpF5knvJNBnyZgM-7">
          <mxGeometry relative="1" as="geometry">
            <Array as="points">
              <mxPoint x="433.5" y="161.5" />
              <mxPoint x="433.5" y="161.5" />
            </Array>
          </mxGeometry>
        </mxCell>
        <mxCell id="AegOCRpF5knvJNBnyZgM-6" value="&lt;span style=&quot;text-wrap-mode: nowrap;&quot;&gt;Timing Graph Construct&lt;/span&gt;" style="rounded=1;whiteSpace=wrap;html=1;fillColor=#f8cecc;strokeColor=#b85450;strokeWidth=2;fontFamily=Times New Roman;shadow=1;" vertex="1" parent="1">
          <mxGeometry x="379.5" y="126.75" width="128" height="24" as="geometry" />
        </mxCell>
        <mxCell id="AegOCRpF5knvJNBnyZgM-7" value="&lt;font&gt;MC2TR Solver&lt;/font&gt;" style="rounded=1;whiteSpace=wrap;html=1;fillColor=#f8cecc;strokeColor=#b85450;strokeWidth=2;fontFamily=Times New Roman;shadow=1;" vertex="1" parent="1">
          <mxGeometry x="388.5" y="176" width="89" height="25.5" as="geometry" />
        </mxCell>
        <mxCell id="AegOCRpF5knvJNBnyZgM-8" value="&lt;font&gt;Optimization &lt;br&gt;Results&lt;/font&gt;" style="shape=parallelogram;perimeter=parallelogramPerimeter;whiteSpace=wrap;html=1;fixedSize=1;fillColor=#dae8fc;strokeColor=#6c8ebf;strokeWidth=2;movable=1;resizable=1;rotatable=1;deletable=1;editable=1;locked=0;connectable=1;fontFamily=Times New Roman;shadow=1;" vertex="1" parent="1">
          <mxGeometry x="374.5" y="223.5" width="119" height="40" as="geometry" />
        </mxCell>
        <mxCell id="AegOCRpF5knvJNBnyZgM-9" value="&lt;font&gt;BLIF&lt;/font&gt;" style="text;html=1;align=center;verticalAlign=middle;resizable=1;points=[];autosize=1;strokeColor=none;fillColor=none;movable=1;rotatable=1;deletable=1;editable=1;locked=0;connectable=1;strokeWidth=2;fontFamily=Times New Roman;shadow=1;" vertex="1" parent="1">
          <mxGeometry x="95.5" y="93.5" width="49" height="30" as="geometry" />
        </mxCell>
        <mxCell id="AegOCRpF5knvJNBnyZgM-10" value="" style="rounded=1;whiteSpace=wrap;html=1;fillColor=#f5f5f5;strokeColor=#666666;strokeWidth=2;fontFamily=Times New Roman;fontColor=#333333;shadow=1;" vertex="1" parent="1">
          <mxGeometry x="200.5" y="40" width="149" height="290" as="geometry" />
        </mxCell>
        <mxCell id="AegOCRpF5knvJNBnyZgM-11" value="" style="rounded=1;whiteSpace=wrap;html=1;strokeWidth=2;movable=1;resizable=1;rotatable=1;deletable=1;editable=1;locked=0;connectable=1;fontFamily=Times New Roman;shadow=1;" vertex="1" parent="1">
          <mxGeometry x="58.5" y="118.5" width="89" height="133" as="geometry" />
        </mxCell>
        <mxCell id="AegOCRpF5knvJNBnyZgM-12" value="&lt;font&gt;STA Report&lt;/font&gt;" style="rounded=0;whiteSpace=wrap;html=1;fillColor=#dae8fc;strokeColor=#6c8ebf;movable=1;resizable=1;rotatable=1;deletable=1;editable=1;locked=0;connectable=1;strokeWidth=2;fontFamily=Times New Roman;shadow=1;" vertex="1" parent="1">
          <mxGeometry x="227.5" y="52.25" width="89" height="28.5" as="geometry" />
        </mxCell>
        <mxCell id="AegOCRpF5knvJNBnyZgM-13" value="" style="rhombus;whiteSpace=wrap;html=1;fillColor=#fff2cc;strokeColor=#d6b656;movable=1;resizable=1;rotatable=1;deletable=1;editable=1;locked=0;connectable=1;strokeWidth=2;fontFamily=Times New Roman;shadow=1;" vertex="1" parent="1">
          <mxGeometry x="201.75" y="140" width="140.5" height="70" as="geometry" />
        </mxCell>
        <mxCell id="AegOCRpF5knvJNBnyZgM-14" value="" style="endArrow=classic;html=1;rounded=0;exitX=0.5;exitY=1;exitDx=0;exitDy=0;movable=1;resizable=1;rotatable=1;deletable=1;editable=1;locked=0;connectable=1;strokeWidth=2;fontFamily=Times New Roman;endSize=3;entryX=0.5;entryY=0;entryDx=0;entryDy=0;shadow=1;" edge="1" parent="1" target="AegOCRpF5knvJNBnyZgM-22">
          <mxGeometry width="50" height="50" relative="1" as="geometry">
            <mxPoint x="272.5" y="82" as="sourcePoint" />
            <mxPoint x="270.5" y="100" as="targetPoint" />
          </mxGeometry>
        </mxCell>
        <mxCell id="AegOCRpF5knvJNBnyZgM-15" value="&lt;font&gt;Forward &amp;amp; Backeward Retiming&lt;/font&gt;" style="rounded=1;whiteSpace=wrap;html=1;fillColor=#d80073;strokeColor=#A50040;arcSize=36;movable=1;resizable=1;rotatable=1;deletable=1;editable=1;locked=0;connectable=1;strokeWidth=2;fontFamily=Times New Roman;fontColor=#ffffff;shadow=1;" vertex="1" parent="1">
          <mxGeometry x="212.5" y="227" width="119" height="41" as="geometry" />
        </mxCell>
        <mxCell id="AegOCRpF5knvJNBnyZgM-16" value="&lt;font&gt;Modified Netlist&lt;/font&gt;" style="rounded=0;whiteSpace=wrap;html=1;fillColor=#dae8fc;strokeColor=#6c8ebf;movable=1;resizable=1;rotatable=1;deletable=1;editable=1;locked=0;connectable=1;strokeWidth=2;fontFamily=Times New Roman;shadow=1;" vertex="1" parent="1">
          <mxGeometry x="221.5" y="285" width="101" height="30" as="geometry" />
        </mxCell>
        <mxCell id="AegOCRpF5knvJNBnyZgM-17" value="" style="endArrow=classic;html=1;rounded=0;exitX=0.5;exitY=1;exitDx=0;exitDy=0;movable=1;resizable=1;rotatable=1;deletable=1;editable=1;locked=0;connectable=1;strokeWidth=2;fontFamily=Times New Roman;shadow=1;" edge="1" parent="1" source="AegOCRpF5knvJNBnyZgM-15">
          <mxGeometry width="50" height="50" relative="1" as="geometry">
            <mxPoint x="272.21000000000004" y="275.5" as="sourcePoint" />
            <mxPoint x="272.5" y="286" as="targetPoint" />
          </mxGeometry>
        </mxCell>
        <mxCell id="AegOCRpF5knvJNBnyZgM-18" value="&lt;font&gt;Yes&lt;/font&gt;" style="text;html=1;align=center;verticalAlign=middle;resizable=1;points=[];autosize=1;strokeColor=none;fillColor=none;movable=1;rotatable=1;deletable=1;editable=1;locked=0;connectable=1;strokeWidth=2;fontFamily=Times New Roman;shadow=1;" vertex="1" parent="1">
          <mxGeometry x="269.5" y="202" width="39" height="30" as="geometry" />
        </mxCell>
        <mxCell id="AegOCRpF5knvJNBnyZgM-19" value="No" style="text;html=1;align=center;verticalAlign=middle;resizable=1;points=[];autosize=1;strokeColor=none;fillColor=none;movable=1;rotatable=1;deletable=1;editable=1;locked=0;connectable=1;strokeWidth=2;fontFamily=Times New Roman;shadow=1;" vertex="1" parent="1">
          <mxGeometry x="321.5" y="146" width="39" height="30" as="geometry" />
        </mxCell>
        <mxCell id="AegOCRpF5knvJNBnyZgM-20" value="" style="endArrow=classic;html=1;rounded=0;exitX=0.46;exitY=0.988;exitDx=0;exitDy=0;exitPerimeter=0;entryX=0.5;entryY=0;entryDx=0;entryDy=0;strokeWidth=2;fontFamily=Times New Roman;shadow=1;" edge="1" parent="1" source="AegOCRpF5knvJNBnyZgM-3" target="AegOCRpF5knvJNBnyZgM-26">
          <mxGeometry width="50" height="50" relative="1" as="geometry">
            <mxPoint x="101.13999999999987" y="101.65999999999997" as="sourcePoint" />
            <mxPoint x="101.25999999999999" y="117.89999999999998" as="targetPoint" />
          </mxGeometry>
        </mxCell>
        <mxCell id="AegOCRpF5knvJNBnyZgM-21" value="&lt;font&gt;Iteration&lt;br style=&quot;border-color: var(--border-color); font-size: 11px;&quot;&gt;&lt;span style=&quot;font-size: 11px;&quot;&gt;Number ≤&amp;nbsp;&lt;/span&gt;&lt;i style=&quot;border-color: var(--border-color); font-size: 11px;&quot;&gt;k&amp;nbsp;&lt;/i&gt;&lt;span style=&quot;font-size: 11px;&quot;&gt;and Satisfy Retiming Rules&amp;nbsp;&lt;/span&gt;&lt;/font&gt;" style="text;html=1;strokeColor=none;fillColor=none;align=center;verticalAlign=middle;whiteSpace=wrap;rounded=0;fontFamily=Times New Roman;shadow=1;" vertex="1" parent="1">
          <mxGeometry x="212.5" y="150" width="119" height="50" as="geometry" />
        </mxCell>
        <mxCell id="AegOCRpF5knvJNBnyZgM-22" value="Critical Path Extract" style="rounded=1;whiteSpace=wrap;html=1;fillColor=#e1d5e7;strokeColor=#9673a6;fillStyle=auto;strokeWidth=2;fontFamily=Times New Roman;shadow=1;" vertex="1" parent="1">
          <mxGeometry x="215" y="100" width="114" height="20" as="geometry" />
        </mxCell>
        <mxCell id="AegOCRpF5knvJNBnyZgM-23" value="" style="endArrow=classic;html=1;rounded=0;exitX=0.5;exitY=1;exitDx=0;exitDy=0;movable=1;resizable=1;rotatable=1;deletable=1;editable=1;locked=0;connectable=1;strokeWidth=2;fontFamily=Times New Roman;endSize=3;entryX=0.5;entryY=0;entryDx=0;entryDy=0;shadow=1;" edge="1" parent="1" target="AegOCRpF5knvJNBnyZgM-13">
          <mxGeometry width="50" height="50" relative="1" as="geometry">
            <mxPoint x="272.4" y="120" as="sourcePoint" />
            <mxPoint x="272.4" y="138" as="targetPoint" />
          </mxGeometry>
        </mxCell>
        <mxCell id="AegOCRpF5knvJNBnyZgM-24" value="" style="endArrow=classic;html=1;rounded=0;exitX=0.5;exitY=1;exitDx=0;exitDy=0;movable=1;resizable=1;rotatable=1;deletable=1;editable=1;locked=0;connectable=1;strokeWidth=2;fontFamily=Times New Roman;endSize=3;entryX=0.5;entryY=0;entryDx=0;entryDy=0;shadow=1;" edge="1" parent="1">
          <mxGeometry width="50" height="50" relative="1" as="geometry">
            <mxPoint x="272.4" y="208" as="sourcePoint" />
            <mxPoint x="272.4" y="226" as="targetPoint" />
          </mxGeometry>
        </mxCell>
        <mxCell id="AegOCRpF5knvJNBnyZgM-25" value="&lt;span style=&quot;font-family: &amp;quot;Times New Roman&amp;quot;;&quot;&gt;VPR&lt;/span&gt;" style="text;html=1;align=center;verticalAlign=middle;whiteSpace=wrap;rounded=0;shadow=1;" vertex="1" parent="1">
          <mxGeometry x="58.5" y="118.5" width="44" height="30" as="geometry" />
        </mxCell>
        <mxCell id="AegOCRpF5knvJNBnyZgM-26" value="Packing" style="rounded=1;whiteSpace=wrap;html=1;fillColor=#eeeeee;strokeWidth=2;fontFamily=Times New Roman;shadow=1;strokeColor=#36393d;" vertex="1" parent="1">
          <mxGeometry x="72" y="141.5" width="56" height="20" as="geometry" />
        </mxCell>
        <mxCell id="AegOCRpF5knvJNBnyZgM-27" value="P&amp;amp;R" style="rounded=1;whiteSpace=wrap;html=1;fillColor=#eeeeee;strokeWidth=2;fontFamily=Times New Roman;shadow=1;strokeColor=#36393d;" vertex="1" parent="1">
          <mxGeometry x="72" y="180.5" width="56" height="20" as="geometry" />
        </mxCell>
        <mxCell id="AegOCRpF5knvJNBnyZgM-28" value="STA" style="rounded=1;whiteSpace=wrap;html=1;fillColor=#eeeeee;strokeWidth=2;fontFamily=Times New Roman;shadow=1;strokeColor=#36393d;" vertex="1" parent="1">
          <mxGeometry x="72" y="216.5" width="56" height="20" as="geometry" />
        </mxCell>
        <mxCell id="AegOCRpF5knvJNBnyZgM-29" value="" style="endArrow=classic;html=1;rounded=0;exitX=0.5;exitY=1;exitDx=0;exitDy=0;movable=1;resizable=1;rotatable=1;deletable=1;editable=1;locked=0;connectable=1;strokeWidth=2;fontFamily=Times New Roman;endSize=3;entryX=0.5;entryY=0;entryDx=0;entryDy=0;shadow=1;" edge="1" parent="1">
          <mxGeometry width="50" height="50" relative="1" as="geometry">
            <mxPoint x="100.25999999999999" y="161.5" as="sourcePoint" />
            <mxPoint x="100.25999999999999" y="179.5" as="targetPoint" />
          </mxGeometry>
        </mxCell>
        <mxCell id="AegOCRpF5knvJNBnyZgM-30" value="" style="endArrow=classic;html=1;rounded=0;exitX=0.5;exitY=1;exitDx=0;exitDy=0;movable=1;resizable=1;rotatable=1;deletable=1;editable=1;locked=0;connectable=1;strokeWidth=2;fontFamily=Times New Roman;endSize=3;entryX=0.5;entryY=0;entryDx=0;entryDy=0;shadow=1;" edge="1" parent="1">
          <mxGeometry width="50" height="50" relative="1" as="geometry">
            <mxPoint x="100.25999999999999" y="199.5" as="sourcePoint" />
            <mxPoint x="100.25999999999999" y="217.5" as="targetPoint" />
          </mxGeometry>
        </mxCell>
        <mxCell id="AegOCRpF5knvJNBnyZgM-31" value="" style="endArrow=classic;html=1;rounded=0;exitX=1.005;exitY=0.835;exitDx=0;exitDy=0;movable=1;resizable=1;rotatable=1;deletable=1;editable=1;locked=0;connectable=1;strokeWidth=2;fontFamily=Times New Roman;endSize=3;entryX=0.003;entryY=0.653;entryDx=0;entryDy=0;entryPerimeter=0;exitPerimeter=0;shadow=1;" edge="1" parent="1" source="AegOCRpF5knvJNBnyZgM-11" target="AegOCRpF5knvJNBnyZgM-10">
          <mxGeometry width="50" height="50" relative="1" as="geometry">
            <mxPoint x="149.5" y="227" as="sourcePoint" />
            <mxPoint x="149.85000000000002" y="247.5" as="targetPoint" />
          </mxGeometry>
        </mxCell>
        <mxCell id="AegOCRpF5knvJNBnyZgM-32" value="&lt;span style=&quot;color: rgb(0, 0, 0); font-family: &amp;quot;Times New Roman&amp;quot;; font-style: normal; font-variant-ligatures: normal; font-variant-caps: normal; font-weight: 400; letter-spacing: normal; orphans: 2; text-align: center; text-indent: 0px; text-transform: none; widows: 2; word-spacing: 0px; -webkit-text-stroke-width: 0px; white-space: normal; text-decoration-thickness: initial; text-decoration-style: initial; text-decoration-color: initial; float: none; display: inline !important;&quot;&gt;&lt;font style=&quot;font-size: 10px;&quot;&gt;STA Report&lt;/font&gt;&lt;/span&gt;" style="text;whiteSpace=wrap;html=1;shadow=1;" vertex="1" parent="1">
          <mxGeometry x="148.5" y="206.5" width="49" height="40" as="geometry" />
        </mxCell>
        <mxCell id="AegOCRpF5knvJNBnyZgM-33" value="&lt;p style=&quot;line-height: 60%;&quot;&gt;&lt;span style=&quot;color: rgb(0, 0, 0); font-family: &amp;quot;Times New Roman&amp;quot;; font-style: normal; font-variant-ligatures: normal; font-variant-caps: normal; font-weight: 400; letter-spacing: normal; orphans: 2; text-indent: 0px; text-transform: none; widows: 2; word-spacing: 0px; -webkit-text-stroke-width: 0px; white-space: normal; text-decoration-thickness: initial; text-decoration-style: initial; text-decoration-color: initial; float: none; display: inline !important;&quot;&gt;&lt;font style=&quot;font-size: 10px;&quot;&gt;Modified Netlist&lt;/font&gt;&lt;/span&gt;&lt;/p&gt;" style="text;whiteSpace=wrap;html=1;align=center;shadow=1;" vertex="1" parent="1">
          <mxGeometry x="154.5" y="91" width="36" height="31.5" as="geometry" />
        </mxCell>
        <mxCell id="AegOCRpF5knvJNBnyZgM-34" value="" style="endArrow=none;html=1;rounded=0;exitX=1.005;exitY=0.835;exitDx=0;exitDy=0;movable=1;resizable=1;rotatable=1;deletable=1;editable=1;locked=0;connectable=1;strokeWidth=2;fontFamily=Times New Roman;endSize=3;entryX=0.003;entryY=0.653;entryDx=0;entryDy=0;entryPerimeter=0;exitPerimeter=0;startArrow=classic;startFill=1;startSize=3;endFill=0;shadow=1;" edge="1" parent="1">
          <mxGeometry width="50" height="50" relative="1" as="geometry">
            <mxPoint x="149.5" y="131.5" as="sourcePoint" />
            <mxPoint x="199.5" y="131.5" as="targetPoint" />
          </mxGeometry>
        </mxCell>
        <mxCell id="AegOCRpF5knvJNBnyZgM-35" style="edgeStyle=orthogonalEdgeStyle;rounded=0;orthogonalLoop=1;jettySize=auto;html=1;strokeWidth=2;exitX=1;exitY=0.5;exitDx=0;exitDy=0;fontFamily=Times New Roman;shadow=1;" edge="1" parent="1">
          <mxGeometry relative="1" as="geometry">
            <Array as="points">
              <mxPoint x="360.25" y="176" />
              <mxPoint x="360.25" y="68" />
            </Array>
            <mxPoint x="343.25" y="176" as="sourcePoint" />
            <mxPoint x="388.5" y="68.5" as="targetPoint" />
          </mxGeometry>
        </mxCell>
        <mxCell id="AegOCRpF5knvJNBnyZgM-36" value="&lt;font&gt;Latch-based&amp;nbsp;&lt;/font&gt;&lt;div&gt;&lt;font&gt;Timing&amp;nbsp;&lt;/font&gt;&lt;span style=&quot;background-color: initial;&quot;&gt;Optimizer&lt;/span&gt;&lt;/div&gt;" style="rounded=0;whiteSpace=wrap;html=1;fillColor=#d80073;strokeColor=#A50040;arcSize=36;movable=1;resizable=1;rotatable=1;deletable=1;editable=1;locked=0;connectable=1;strokeWidth=2;fontFamily=Times New Roman;fontColor=#ffffff;shadow=1;" vertex="1" parent="1">
          <mxGeometry x="459.5" y="94.5" width="88" height="28" as="geometry" />
        </mxCell>
        <mxCell id="AegOCRpF5knvJNBnyZgM-37" style="rounded=0;orthogonalLoop=1;jettySize=auto;html=1;entryX=0.386;entryY=0.091;entryDx=0;entryDy=0;entryPerimeter=0;strokeWidth=2;startSize=3;endSize=3;shadow=1;" edge="1" parent="1" target="AegOCRpF5knvJNBnyZgM-6">
          <mxGeometry relative="1" as="geometry">
            <mxPoint x="429.5" y="82.5" as="sourcePoint" />
          </mxGeometry>
        </mxCell>
      </root>
    </mxGraphModel>
  </diagram>
</mxfile>
